/* XPM */
static char *_233aa92b63a4349f8a60d4228d7ca86Zp8uA6wzXSkcanJn[] = {
/* columns rows colors chars-per-pixel */
"32 32 191 2 ",
"   c black",
".  c #1A4F95",
"X  c #194E94",
"o  c #2B74B7",
"O  c #6BFFFF",
"+  c #2B75B8",
"@  c #205CA1",
"#  c #1A4E94",
"$  c #184B91",
"%  c #0A2A73",
"&  c #4CCDFF",
"*  c #2A73B7",
"=  c #2C77BA",
"-  c #194D93",
";  c #6AFFFF",
":  c #1F5A9F",
">  c #2D79BC",
",  c #2E7CBE",
"<  c #7FFFFF",
"1  c #1F5BA0",
"2  c #1E579D",
"3  c #54D8FF",
"4  c #16468D",
"5  c #194C92",
"6  c #2465A9",
"7  c #6DFFFF",
"8  c #2971B5",
"9  c #ABFFFF",
"0  c #113781",
"q  c #123982",
"w  c #123983",
"e  c #0C2A76",
"r  c #1A4E94",
"t  c #194C92",
"y  c #184A91",
"u  c #16458D",
"i  c #2261A7",
"p  c #276FB3",
"a  c #3392D0",
"s  c #3495D3",
"d  c #3495D3",
"f  c #3595D3",
"g  c #2E84C5",
"h  c #2365AA",
"j  c #184991",
"k  c #184990",
"l  c #184B91",
"z  c #194D93",
"x  c #194D93",
"c  c #1A4E94",
"v  c #3392D0",
"b  c #4BC3F6",
"n  c #50CAF8",
"m  c #3DA9E3",
"M  c #1F5A9F",
"N  c #184B92",
"B  c #194D93",
"V  c #1A4F95",
"C  c #17488F",
"Z  c #1F5BA0",
"A  c #16468D",
"S  c #205CA2",
"D  c #184990",
"F  c #3492D2",
"G  c #45B6EB",
"H  c #266AB2",
"J  c #2261A8",
"K  c #4FCBFC",
"L  c #62D5F5",
"P  c #3699D8",
"I  c #0C2B75",
"U  c #389BD7",
"Y  c #184991",
"T  c #2365AB",
"R  c #2467AC",
"E  c #3392D0",
"W  c #266EB3",
"Q  c #3799D5",
"!  c #194A92",
"~  c #15468F",
"^  c #3F9DD9",
"/  c #266FB4",
"(  c #0C2A75",
")  c #3290CF",
"_  c #5DCAEE",
"`  c #48BBEF",
"'  c #2262A8",
"]  c #15448B",
"[  c #1E579D",
"{  c None",
"}  c #2C7CBD",
"|  c #17488F",
" . c #17478E",
".. c #215DA2",
"X. c #184B91",
"o. c #1D559B",
"O. c #194C93",
"+. c #1F599E",
"@. c #37ACDF",
"#. c #42AFE4",
"$. c #36A1D7",
"%. c #1E569C",
"&. c #1F5BA1",
"*. c #276FB3",
"=. c #2364AA",
"-. c #1B5097",
";. c #205BA1",
":. c #205BA0",
">. c #16468D",
",. c #0C2B76",
"<. c #16478E",
"1. c #2970B3",
"2. c #328BCA",
"3. c #53C9F5",
"4. c #66CCE7",
"5. c #69CCE5",
"6. c #69CCE4",
"7. c #5DCAEE",
"8. c #3084C5",
"9. c #2B75B8",
"0. c #45C2F6",
"q. c #45DFFF",
"w. c #5DD9F7",
"e. c #5CA2B3",
"r. c #476D73",
"t. c #1C2527",
"y. c #151A1B",
"u. c #161B1C",
"i. c #15191A",
"p. c #31494D",
"a. c #51838D",
"s. c #63C5DD",
"d. c #4EE0FF",
"f. c #46D7FF",
"g. c #3B9DDB",
"h. c #42B9EF",
"j. c #44E1FF",
"k. c #59D2EA",
"l. c #355359",
"z. c #080909",
"x. c black",
"c. c #192021",
"v. c #529CAA",
"b. c #4DE3FF",
"n. c #42C5F5",
"m. c #59D3EB",
"M. c #324E54",
"N. c #0F1414",
"B. c #529CAB",
"V. c #4EE1FF",
"C. c #318BC9",
"Z. c #5BCBEF",
"A. c #0F1314",
"S. c #5AA7B8",
"D. c #5CA3B3",
"F. c #31484C",
"G. c #53C9F4",
"H. c #121616",
"J. c #66C3D9",
"K. c #50828B",
"L. c #4EC3F3",
"P. c #4D7880",
"I. c #51C9F7",
"U. c #53C4F1",
"Y. c #476C74",
"T. c #66C0D8",
"R. c #5DA2B4",
"E. c #31494C",
"W. c #5CC1E9",
"Q. c #5AA3B6",
"!. c #5AD2EB",
"~. c #324F54",
"^. c #539CAB",
"/. c #4DD6FD",
"(. c #43C4F4",
"). c #43E3FF",
"_. c #529BAA",
"`. c #4CE3FF",
"'. c #44DEFF",
"]. c #3A9CD9",
"[. c #43E2FF",
"{. c #5CDDF6",
"}. c #52838D",
"|. c #63C8DE",
" X c #43DEFF",
".X c #43C4F5",
"XX c #54CAF5",
"oX c #5DCBEE",
"OX c #4DC3F3",
"+X c #3FBEEE",
"@X c white",
/* pixels */
"                                                                ",
"                                                                ",
"                                                                ",
"                                                                ",
"                        . . . . . . . .                         ",
"              . . . . X o O 0 q q w e + @ . . . . .             ",
"            . # r t y u i p a s d f g h j k l z $ . .           ",
"          . # x c 1.2.v b 3.4.5.5.6.7.n m 2.8.M N $ .           ",
"          . B V 9.0.q.w.e.r.t.y.u.i.p.a.s.d.f.g.M z .           ",
"          . C Z h.j.k.l.z.x.x.x.x.x.x.x.c.v.b.f.8.l .           ",
"          . A S n.m.M.x.x.x.x.x.x.x.x.x.x.N.B.V.C.D #           ",
"          % & F Z.l.x.x.x.x.x.x.x.x.x.x.x.x.A.S.G H * .         ",
"        . = J K D.z.x.x.x.x.x.x.x.x.x.x.x.x.x.F.L P I -         ",
"        . ; p G.r.x.x.x.x.x.x.x.x.x.x.x.x.x.x.H.J.U Y :         ",
"        . 0 a 4.t.x.x.x.x.x.x.x.x.x.x.x.x.x.x.x.K.L.T >         ",
"        . q s 5.y.x.x.x.x.x.x.x.x.x.x.x.x.x.x.x.P.I.R ,         ",
"        . q s 5.y.x.x.x.x.x.x.x.x.x.x.x.x.x.x.x.P.I.R ,         ",
"        . 0 E 4.t.x.x.x.x.x.x.x.x.x.x.x.x.x.x.x.K.L.T >         ",
"        . < W U.Y.x.x.x.x.x.x.x.x.x.x.x.x.x.x.H.T.Q ! 1         ",
"        . 2 ~ ^ R.z.x.x.x.x.x.x.x.x.x.x.x.x.x.E.W./ 3 4         ",
"          - ( ) _ l.x.x.x.x.x.x.x.x.x.x.x.x.N.Q.` ' o .         ",
"          . ] [ { !.~.x.x.x.x.x.x.x.x.x.x.N.^./.} | X           ",
"          .  ...(.).k.l.z.x.x.x.x.x.x.x.c._.`.'.2.y .           ",
"          . X.o.].f.[.{.D.r.t.y.u.i.p.}.|.`. X0.1.t .           ",
"          . : O.+.]..X@.#.XX4.5.5.6.oXOX$.+Xh.9.c r .           ",
"          . . 5 O.o...%.&.*.a s d f g =.-.;.:.V x # .           ",
"            . . : X. .>.6 7 0 q q w ,.8 9 <.C B # .             ",
"              . . . . . . . . . . . . . . . . . .               ",
"                                                                ",
"                                                                ",
"                                                                ",
"                                                                "
};
