/* XPM */
static char *_8573307482d4a36da89b19844401fc0wtsprorGamdyfpqg[] = {
/* columns rows colors chars-per-pixel */
"32 32 15 1 ",
"  c None",
". c #0E1A05",
"X c #2F661A",
"o c #3D6D1B",
"O c #468014",
"+ c #548B3C",
"@ c #609521",
"# c #61A53F",
"$ c #8FD032",
"% c #C4F129",
"& c #DDF336",
"* c #EAF43C",
"= c #F8F644",
"- c #FAF85A",
"; c #FBF880",
/* pixels */
"                                ",
"                                ",
"                                ",
"                                ",
"                                ",
"                                ",
"                                ",
"                                ",
"                                ",
"                                ",
"                                ",
"                                ",
"                                ",
"                                ",
"                                ",
"              ........          ",
"            ..$%%%%***..        ",
"           .$$%%%%&*==**.       ",
"          .$$$%%%%&*=;=**.      ",
"         .$$$%%%%%&**=-=*.      ",
"        .$$$%%%%%%%&&****%.     ",
"       .#$$$%%%%%%%%%%%%%%.     ",
"       .#$$$%%%%%%%%%%%%%%.     ",
"      .###$$%%%%%%%%%%%%%%.     ",
"      .###$$%%%%%%.%%%%.%$.     ",
"      .####$$%%%%%o%%%%o%$.     ",
"      .#+##$$$%%%%%%%%%%$$.     ",
"      .#++##$$$$%%%o@@o%$.      ",
"       .##+##$$$$$$$$$$$#.      ",
"       .##XXXXXXXOOOO$$#.       ",
"        .XXXXXXXXXXXXXX.        ",
"         ..............         "
};
